OpenSim_Sub01_CSStiffKnee_RCS.mot
version=1
nRows=61
nColumns=11
inDegrees=no
endheader
time	Top_Thigh	Med_Thigh	Bot_Thigh	Top_Shank	2nd_Top_Shank	2nd_Bot_Shank	Bot_Shank	BNOx	BNOy	BNOZ
13.45000000	1234.66928531	1190.09703196	1110.54853301	919.24501829	1041.75484219	923.15638084	921.46174810	48.16187001	-55.66484122	119.05155979
13.46000000	1234.41585452	1191.12813435	1111.41911161	917.72656493	1040.80862639	922.09968293	921.06115463	49.63291566	-54.98605455	118.10247607
13.47000000	1238.77318887	1196.47462592	1116.56641822	918.75860793	1040.16131937	921.26242673	920.36909227	51.13904437	-54.28570198	117.13857352
13.48000000	1248.45293174	1206.79196865	1126.63976047	922.77823233	1039.86675603	920.68810028	919.34442631	52.67682312	-53.56422008	116.16389670
13.49000000	1261.93196590	1220.62177216	1140.16889000	929.11841438	1039.85519611	920.33397071	918.04233695	54.27956611	-52.79668123	115.16707376
13.50000000	1275.96685096	1234.87839838	1154.05192006	936.26218524	1039.96177100	920.09093213	916.59214785	56.00887564	-51.93863235	114.12486532
13.51000000	1287.40681058	1246.56414411	1165.27712353	942.73097128	1040.02700268	919.85300928	915.12102914	57.92225755	-50.94815007	113.01582947
13.52000000	1295.14974787	1254.62339919	1172.80984537	947.94784846	1040.00868718	919.58661787	913.69539030	60.00503417	-49.82867786	111.84998786
13.53000000	1299.67064349	1259.49558048	1177.13738452	952.02998439	1039.95489837	919.31390026	912.33486711	62.18696090	-48.61858270	110.66158288
13.54000000	1301.48504599	1261.65856216	1178.78618985	955.11240113	1039.91603237	919.05843232	911.05789220	64.39636371	-47.35712993	109.48547995
13.55000000	1301.10850395	1261.59021838	1178.28271025	957.33012072	1039.94248528	918.84378988	909.88289818	66.56156860	-46.08358488	108.35654449
13.56000000	1299.05656593	1259.76842331	1176.15339459	958.81816522	1040.08465323	918.69354882	908.82831767	68.61090158	-44.83721289	107.30964191
13.57000000	1295.84478049	1256.67105111	1172.92469175	959.71155668	1040.39293232	918.63128498	907.91258327	70.47268862	-43.65727928	106.37963765
13.58000000	1291.98869620	1252.77597595	1169.12305061	960.14531716	1040.91771869	918.68057422	907.15412760	72.07525573	-42.58304938	105.60139711
13.59000000	1288.00386161	1248.56107200	1165.27492006	960.25446872	1041.70940844	918.86499240	906.57138329	73.34692891	-41.65378854	105.00978572
13.60000000	1284.40582529	1244.50421340	1161.90674897	960.17403340	1042.81839769	919.20811537	906.18278294	74.21603413	-40.90876208	104.63966890
13.61000000	1281.71013580	1241.08327434	1159.54498622	960.03903326	1044.29508255	919.73351898	906.00675916	74.61089741	-40.38723534	104.52591208
13.62000000	1280.39978831	1238.74981963	1158.68049403	959.97856169	1046.18153721	920.46144963	906.05932494	74.47052209	-40.12676292	104.69626481
13.63000000	1280.47068253	1237.56174839	1159.27165291	960.03300165	1048.39531508	921.36233501	906.32028816	73.89367641	-40.13930183	105.07200248
13.64000000	1281.54375119	1237.27391509	1160.86693783	960.17444663	1050.75811323	922.36825231	906.74158600	73.10211594	-40.41710400	105.49243640
13.65000000	1283.23028152	1237.63337883	1163.00427960	960.37323348	1053.08916298	923.41029219	907.27443870	72.32075991	-40.95191447	105.79476948
13.66000000	1285.14156079	1238.38719874	1165.22160901	960.59969906	1055.20769562	924.41954532	907.87006650	71.77452755	-41.73547831	105.81620466
13.67000000	1286.88887624	1239.28243392	1167.05685686	960.82418022	1056.93294249	925.32710237	908.47968964	71.68833809	-42.75954056	105.39394484
13.68000000	1288.08361162	1240.06619489	1168.04807832	961.01701874	1058.08418760	926.06407133	909.05453711	72.28690208	-44.01584373	104.36535075
13.69000000	1288.46518915	1240.55379951	1167.89835823	961.15507917	1058.55067505	926.58455626	909.55745771	73.51800514	-45.49277690	102.77718188
13.70000000	1288.15348004	1240.76323451	1166.80114476	961.23460772	1058.42952570	926.91099082	909.98582697	74.50658818	-47.16876479	101.29839769
13.71000000	1287.33869462	1240.74995698	1165.04054669	961.25543392	1057.85629363	927.07844178	910.34340386	74.22546081	-49.02038988	100.71299285
13.72000000	1286.21104325	1240.56942402	1162.90067281	961.21738734	1056.96653290	927.12197590	910.63394733	71.64743262	-51.02423463	101.80496202
13.73000000	1284.96073627	1240.27709270	1160.66563189	961.12029753	1055.89579760	927.07665995	910.86121635	65.74531319	-53.15688152	105.35829986
13.74000000	1283.77770559	1239.92836706	1158.61911840	960.96401730	1054.77947620	926.97751974	911.02896400	55.49527988	-55.39489718	112.15461565
13.75000000	1282.79285347	1239.56740165	1156.95698884	960.75333338	1053.71784995	926.85089980	911.13969168	40.58747553	-57.71148770	122.46981414
13.76000000	1282.00537926	1239.21325195	1155.67912171	960.50404066	1052.73287128	926.70377555	911.19310826	22.30499428	-60.07236143	135.45150659
13.77000000	1281.39666203	1238.88157739	1154.75887838	960.23342353	1051.83589417	926.54050165	911.18854472	2.14646703	-62.44221222	150.09463875
13.78000000	1280.94808086	1238.58803740	1154.16962021	959.95876635	1051.03827264	926.36543276	911.12533207	-18.38947535	-64.78573392	165.39415634
13.79000000	1280.64101482	1238.34829139	1153.88470860	959.69735351	1050.35136068	926.18292354	911.00280128	-37.80420195	-67.06762038	180.34500512
13.80000000	1280.45684298	1238.17799879	1153.87750489	959.46646937	1049.78651230	925.99732863	910.82028337	-54.59908190	-69.25256546	193.94213082
13.81000000	1280.37694442	1238.09281902	1154.12137048	959.28339831	1049.35508150	925.81300271	910.57710931	-67.27548430	-71.30526298	205.18047919
13.82000000	1280.38269822	1238.10841150	1154.58966673	959.16542472	1049.06842228	925.63430042	910.27261012	-74.33477827	-73.19040682	213.05499597
13.83000000	1280.45548344	1238.24043566	1155.25575502	959.12983296	1048.93788865	925.46557642	909.90611678	-74.27833290	-74.87269081	216.56062690
13.84000000	1280.57667916	1238.50455093	1156.09299672	959.19390740	1048.97483461	925.31118537	909.47696028	-65.60751732	-76.31680882	214.69231772
13.85000000	1280.72766445	1238.91641671	1157.07475319	959.37493243	1049.19061416	925.17548193	908.98447163	-46.82370064	-77.48745467	206.44501418
13.86000000	1280.88981840	1239.49169245	1158.17438583	959.69019242	1049.59658131	925.06282076	908.42798182	-16.42825195	-78.34932224	190.81366201
13.87000000	1281.04457441	1240.24525981	1159.36474415	960.15640758	1050.20351724	924.97741358	907.80699136	27.04549930	-78.86759603	166.80759738
13.88000000	1281.17757062	1241.13182606	1160.57907654	960.74664856	1050.97788458	924.91241392	907.13411696	82.59144271	-79.04542469	134.54954932
13.89000000	1281.28157244	1242.00409868	1161.68350465	961.35999694	1051.81102289	924.84223087	906.44420820	145.01193244	-78.95030860	96.04952496
13.90000000	1281.35003566	1242.70490491	1162.53764791	961.88836734	1052.58699491	924.73945784	905.77426821	208.70330833	-78.65598163	53.50034323
13.91000000	1281.37641607	1243.07707199	1163.00112571	962.22367438	1053.18986339	924.57668825	905.16130017	268.06191024	-78.23617761	9.09482303
13.92000000	1281.35416947	1242.96342713	1162.93355748	962.25783268	1053.50369106	924.32651549	904.64230721	317.48407801	-77.76463041	-34.97421674
13.93000000	1281.27675164	1242.20679759	1162.19456262	961.88275686	1053.41254068	923.96153299	904.25429250	351.36615150	-77.31507387	-76.51395717
13.94000000	1281.13761838	1240.65001060	1160.64376055	960.99036155	1052.80047499	923.45433414	904.03425919	364.10447056	-76.96124185	-113.33157935
13.95000000	1280.93059346	1238.13865319	1158.14340581	959.47435514	1051.55334980	922.77822627	904.01901911	350.15957807	-76.77629923	-143.24358227
13.96000000	1280.67797034	1234.73183966	1154.75963395	957.36723258	1049.69575057	921.96175154	904.23058064	308.95942980	-76.78939004	-164.78739362
13.97000000	1280.45030066	1230.85062780	1150.90417301	954.93674155	1047.48741924	921.12707906	904.66585935	248.35209110	-76.95503985	-177.72246526
13.98000000	1280.32281060	1226.95113518	1147.02222691	952.47341757	1045.21087620	920.40544714	905.31934016	177.00124371	-77.22054629	-181.92662080
13.99000000	1280.37072631	1223.48947936	1143.55899960	950.26779618	1043.14864187	919.92809407	906.18550801	103.57056938	-77.53320702	-177.27768383
14	1280.66927398	1220.92177789	1140.95969501	948.61041290	1041.58323666	919.82625817	907.25884783	36.72374983	-77.84031967	-163.65347797
14.01000000	1281.29214837	1219.69620805	1139.66183581	947.78678816	1040.79246972	920.22862749	908.53326001	-14.99983726	-78.08980936	-140.95573015
14.02000000	1282.25351125	1219.95226847	1139.80433535	947.88748093	1040.87100034	921.16474951	909.97992091	-47.89313457	-78.25399438	-110.01540968
14.03000000	1283.49018892	1221.42847332	1141.13820289	948.74978829	1041.67556962	922.53538453	911.54048757	-64.52643991	-78.33688060	-72.87060454
14.04000000	1284.93383920	1223.83653831	1143.38852341	950.19408145	1043.04701820	924.23268581	913.15464421	-67.88957725	-78.34459166	-31.64007650
14.05000000	1286.51611991	1226.88817913	1146.28038188	952.04073157	1044.82618670	926.14880662	914.76207504	-60.97237059	-78.28325116	11.55741267
